<?xml version="1.0" encoding="utf-8" ?><svg xmlns="http://www.w3.org/2000/svg" xmlns:xlink="http://www.w3.org/1999/xlink" width="1213" height="440" viewBox="0 0 1213 440"><clipPath id="cl_3"><rect y="1.5258789e-05" width="1213" height="440.00006"/></clipPath><g clip-path="url(#cl_3)"><path fill="white" transform="matrix(2.13556 0 0 2.13592 -119.592 -215.728)" d="M147.778 117.171C152.368 116.735 156.92 117.013 161.087 119.17C165.806 121.612 170.637 126.009 172.242 131.163C176.015 143.287 168.991 159.521 163.492 170.056C160.957 174.914 141.603 206.123 137.798 206.957C136.451 207.252 133.227 206.188 132.049 205.478C131.656 205.24 131.392 204.977 131.305 204.528C131.107 203.503 131.844 202.356 132.367 201.511C134.217 198.518 136.634 195.721 138.775 192.927C142.488 188.081 146.115 183.181 149.29 177.959C156.172 166.639 164.812 148.141 165.007 134.761C165.057 131.393 164.422 128.308 163.631 125.047C161.936 123.427 161.149 123.002 159.156 121.905C152.173 123.52 146.127 125.582 140.484 130.195C113.778 152.023 91.3854 200.268 84.08 233.334C82.5241 240.376 82.0198 247.416 81.3288 254.569C80.5025 263.122 82.4811 276.785 88.2456 283.638C90.8455 286.729 94.7585 288.778 98.7926 289.066C108.518 289.762 117.605 282.321 124.453 276.393C126.643 274.497 128.945 272.667 130.938 270.561C138.102 262.993 144.149 254.304 150.124 245.799C153.447 241.068 156.88 236.389 159.981 231.509C162.356 227.772 167.468 217.235 170.601 214.842C171.837 213.898 173.829 214.737 175.226 214.979C177.194 214.294 180.023 208.81 181.721 206.486C187.627 198.401 201.864 182.765 212.87 189.524C217.283 191.887 216.155 197.03 217.368 199.701C218.69 202.612 220.576 224.421 224.949 221.919C231.751 218.027 238.982 209.746 243.722 203.472C245.053 201.711 247.136 195.631 248.18 193.17C251.986 184.04 255.69 174.868 259.293 165.656C261.45 160.284 263.784 154.59 266.429 149.42C266.728 148.889 267.34 148.133 268.018 148.113C269.907 148.059 273.247 149.647 273.064 151.861C272.708 156.161 269.079 162.291 268.077 165.943C266.266 172.544 249.851 208.156 250.27 212.827C251.525 213.38 255.459 212.201 256.949 211.835C266.271 208.874 276.683 207.021 285.884 203.577C286.954 202.174 287.984 200.17 288.955 198.598C292.702 192.527 301.244 184.376 308.921 187.822C315.323 190.696 314.965 198.185 312.201 203.612C309.272 209.363 305.78 212.272 299.762 214.26C297.798 213.892 293.745 212.17 292.285 212.245C290.635 214.191 290.029 219.078 290.097 221.579C290.143 223.244 290.626 225.063 291.931 226.191C300.792 233.854 323.908 205.699 330.812 205.177C331.661 205.113 332.716 205.187 333.365 205.794C333.849 206.246 334.045 206.677 334.033 207.352C334.006 208.847 332.642 210.543 331.645 211.554C325.111 218.183 308.37 231.057 298.909 231.062C294.003 231.065 288.991 229.227 285.546 225.664C282.029 222.024 282.915 216.447 282.949 211.773C275.099 215.272 259.19 217.576 252.062 221.025C251.892 224.712 252.377 226.594 252.63 229.922C252.841 232.695 251.77 239.69 250.919 242.516C248.186 251.603 242.417 265.53 234.153 270.792C232.26 271.997 229.132 272.492 227.012 271.884C226.134 271.633 224.852 270.834 224.621 270.016C221.253 258.078 232.224 234.175 235.923 223.765C232.392 227.039 228.186 228.273 223.596 226.209C219.411 224.328 215.521 218.593 214.426 214.239C213.76 211.592 213.797 209.622 212.785 206.874C205.154 211.313 190.282 226.182 182.509 229.123C178.086 227.704 177.365 227.179 174.362 223.704C172.096 227.782 169.704 231.79 167.189 235.72C162.421 243.065 157.438 250.135 152.189 257.138C141.439 271.48 127.979 288.046 109.453 291.945C105.89 292.695 105.291 292.273 101.972 292.07C95.6374 291.681 90.6863 291.483 85.1138 287.831C78.7582 283.665 75.1811 275.95 73.6681 268.676C66.6723 235.042 87.457 183.556 105.945 155.505C115.209 141.45 130.341 120.75 147.778 117.171ZM232.668 265.056C238.317 256.69 242.14 247.172 243.741 237.117C244.442 232.715 243.208 231.111 244.908 226.809L244.711 226.185L244.26 225.992C240.465 232.117 231.375 257.341 232.175 264.422L232.668 265.056ZM186.142 217.62C188.615 216.132 189.899 214.52 192.02 212.891C197.578 208.621 205.487 201.271 211.446 198.206C211.098 197.324 210.176 194.525 209.49 194.198C200.953 198.563 194.269 203.8 188.557 211.615C187.35 213.266 185.331 215.352 185.054 217.426L185.306 217.765L186.142 217.62ZM296.056 208.451L296.618 208.766C301.327 207.159 306.958 198.789 307.081 193.803L306.803 193.267L306.396 193.212C303.091 194.955 294.033 204.204 294.086 207.556C294.74 208.126 295.233 208.2 296.056 208.451Z"/><path fill="white" transform="matrix(2.13556 0 0 2.13592 -119.592 -215.728)" d="M485.552 126.105C490.676 125.701 494.328 131.883 493.776 136.031C491.583 152.528 483.521 168.7 477.001 183.877L461.138 220.924C457.295 230.026 439.652 272.262 441.484 279.797L441.144 280.339C437.12 282.55 432.177 278.979 433.264 275.067C441.832 244.232 454.562 214.13 466.422 184.478C469.374 177.098 487.333 139.81 486.877 135.197L486.294 134.928C477.792 135.819 425.522 204.414 417.672 215.15C411.781 223.242 406.15 231.52 400.789 239.972C395.832 247.83 391.363 255.907 387.02 264.118C385.664 266.68 384.678 269.47 383.199 271.958C382.729 272.75 382.226 273.455 381.348 273.831C380.366 274.251 379.213 274.09 378.253 273.69C377.086 273.203 375.768 272.254 375.358 271.009C373.28 264.7 399.748 202.119 403.91 192.636C405.94 188.012 408.305 183.56 410.4 178.967C413.562 170.261 429.675 142.368 429.908 135.753C428.574 132.503 423.54 134.915 421.104 135.795C405.705 141.359 392.486 151.128 380.853 162.484C378.583 164.701 375.725 166.631 373.497 168.939C365.607 176.862 358.595 185.684 352.141 194.802C350.873 196.594 348.387 199.666 349.327 201.895C353.048 205.63 375.269 199.355 380.793 200.471C382.778 200.872 384.207 204.245 385.024 205.991C384.688 206.146 384.349 206.296 384.008 206.442C379.594 208.319 364.271 209.365 358.771 209.765C356.996 209.894 351.694 209.026 349.988 208.261C345.836 206.401 344.431 203.309 342.875 199.404C343.685 195.405 345.479 191.606 347.59 188.137C359.958 167.81 398.534 133.089 421.539 127.597C424.18 126.966 427.179 126.632 429.587 128.165C433.608 130.723 435.407 135.477 434.968 140.09C434.048 149.744 427.804 160.255 423.568 168.918C422.035 172.052 420.756 175.298 419.256 178.446C417.672 181.773 415.836 184.972 414.294 188.323C410.064 197.517 406.476 206.948 402.608 216.286C401.464 219.047 397.841 226.318 398.376 228.874C399.276 228.548 415.69 204.846 417.959 201.718C428.123 187.892 438.643 174.332 449.51 161.051C457.881 150.756 467.452 139.208 477.479 130.378C479.965 128.189 482.329 126.878 485.552 126.105Z"/><path fill="white" transform="matrix(2.13556 0 0 2.13592 -119.592 -215.728)" d="M566.141 116.181C571.141 115.88 574.476 115.148 578.372 118.381C578.547 118.817 578.714 119.256 578.874 119.697C583.725 133.207 556.289 164.172 547.543 174.048C545.833 175.978 544.266 178.065 542.491 179.932C539.29 183.299 534.372 185.057 532.332 189.496C531.292 191.76 530.837 194.6 530.252 197.032C528.436 204.581 525.097 218.099 527.935 225.448C528.508 226.933 530.308 230.318 531.837 230.946C536.004 232.656 555.916 208.67 558.654 204.329C560.704 201.078 561.362 197.095 563.688 193.967C564.843 192.413 566.305 191.292 568.064 190.495C571.873 188.769 576.597 188.537 580.521 190.017C582.531 190.775 584.763 192.17 585.619 194.229C587.467 198.68 582.989 211.741 580.956 216.386C587.882 213.856 592.582 211.3 598.524 206.784C599.437 206.089 600.977 204.994 602.061 204.68C603.528 204.256 605.333 206.072 605.632 207.46C605.516 208.487 605.04 209.382 604.264 210.064C596.312 217.061 589.347 220.132 578.821 220.118C574.516 226.203 569.932 231.178 561.724 225.881C558.605 223.869 557.371 221.337 556.691 217.725C553.548 221.01 550.341 224.468 547.022 227.559C532.287 241.558 520.092 232.069 518.67 214.108C512.241 220.245 505.612 224.743 497.409 228.855C489.128 233.007 478.328 231.205 473.946 222.336C471.934 218.264 473.56 209.629 475.488 205.409C478.203 199.466 483.535 191.236 489.963 188.727C494.281 186.959 502.104 188.295 503.612 193.441C504.626 196.901 503.643 200.769 502.05 203.968C500.161 207.762 496.509 212.115 492.435 213.646C488.443 214.932 485.756 213.447 482.381 211.691C482.12 212.353 481.879 213.022 481.657 213.698C480.509 217.258 480.483 223.285 482.241 226.741L485.456 227.681C486.239 227.506 489.477 226.863 490.153 226.514C500.018 221.431 511.779 211.898 519.755 204.333C521.511 199.653 523.396 190.152 524.595 185.688C529.053 169.097 549.341 121.544 566.141 116.181ZM571.792 119.99C556.784 127.964 545.262 158.057 538.211 173.03C538.023 173.429 538.247 173.824 538.458 174.14C542.272 169.132 546.45 164.98 550.454 160.501C556.868 153.329 572.836 129.747 571.996 120.313L571.792 119.99ZM485.14 208.91C490.195 209.594 498.791 197.396 496.602 193.843C491.259 195.825 487.231 201.333 484.538 206.234C484.311 206.648 484.212 207.117 484.165 207.587C484.569 208.29 484.587 208.321 485.14 208.91ZM572.768 211.274C575.617 209.668 578.378 196.513 577.831 193.407C577.362 192.819 577.646 193 577.012 192.763C571.623 197.043 568.877 205.208 572.768 211.274ZM567.961 221.823C569.343 219.957 570.202 218.805 571.333 216.766C570.162 215.592 566.175 211.342 564.99 210.916C563.969 213.273 563.094 221.897 565.19 223.659C566.639 223.69 567.058 222.883 567.961 221.823Z"/><path fill="white" transform="matrix(2.13556 0 0 2.13592 -119.592 -215.728)" d="M321.149 176.632C323.509 176.483 325.67 178.197 327.301 179.653C324.309 181.378 316.381 183.956 313 184.796C311.771 184.823 308.355 184.099 307.668 183.001L307.883 182.337C309.784 180.445 318.345 177.405 321.149 176.632Z"/></g></svg>